<svg width="17" height="18" viewBox="0 0 17 18" fill="none" xmlns="http://www.w3.org/2000/svg">
<path id="Star 5" d="M7.94037 1.31792C8.29463 1.15031 8.70537 1.15031 9.05963 1.31792L13.4715 3.40534C13.745 3.53476 13.9652 3.75498 14.0947 4.02851L16.1821 8.44037C16.3497 8.79463 16.3497 9.20537 16.1821 9.55963L14.0947 13.9715C13.9652 14.245 13.745 14.4652 13.4715 14.5947L9.05963 16.6821C8.70537 16.8497 8.29463 16.8497 7.94037 16.6821L3.52852 14.5947C3.25498 14.4652 3.03476 14.245 2.90534 13.9715L0.817923 9.55963C0.650309 9.20537 0.650309 8.79463 0.817923 8.44037L2.90534 4.02852C3.03476 3.75498 3.25498 3.53476 3.52852 3.40534L7.94037 1.31792Z" stroke="white"/>
</svg>
